HIERARCHY
ROOT hip
{
  OFFSET 52.8695 84.6358 127.805
  CHANNELS 6 Xposition Yposition Zposition Zrotation Xrotation Yrotation
  JOINT abdomen
  {
    OFFSET 0 20.6881 -0.73152
    CHANNELS 3 Zrotation Xrotation Yrotation
    JOINT chest
    {
      OFFSET 0 11.7043 -0.48768
      CHANNELS 3 Zrotation Xrotation Yrotation
      JOINT neck
      {
        OFFSET 0 22.1894 -2.19456
        CHANNELS 3 Zrotation Xrotation Yrotation
        JOINT head
        {
          OFFSET -0.24384 7.07133 1.2192
          CHANNELS 3 Zrotation Xrotation Yrotation
          JOINT leftEye
          {
            OFFSET 4.14528 8.04674 8.04672
            CHANNELS 3 Zrotation Xrotation Yrotation
            End Site
            {
              OFFSET 1 0 0
            }
          }
          JOINT rightEye
          {
            OFFSET -3.6576 8.04674 8.04672
            CHANNELS 3 Zrotation Xrotation Yrotation
            End Site
            {
              OFFSET 1 0 0
            }
          }
        }
      }
      JOINT rCollar
      {
        OFFSET -2.68224 19.2634 -4.8768
        CHANNELS 3 Zrotation Xrotation Yrotation
        JOINT rShldr
        {
          OFFSET -8.77824 -1.95073 1.46304
          CHANNELS 3 Zrotation Xrotation Yrotation
          JOINT rForeArm
          {
            OFFSET -28.1742 -1.7115 0.48768
            CHANNELS 3 Zrotation Xrotation Yrotation
            JOINT rHand
            {
              OFFSET -22.5879 0.773209 7.07136
              CHANNELS 3 Zrotation Xrotation Yrotation
              JOINT rThumb1
              {
                OFFSET -1.2192 -0.487915 3.41376
                CHANNELS 3 Zrotation Xrotation Yrotation
                JOINT rThumb2
                {
                  OFFSET -3.37035 -0.52449 3.41376
                  CHANNELS 3 Zrotation Xrotation Yrotation
                  End Site
                  {
                    OFFSET -1.78271 -1.18214 1.43049
                  }
                }
              }
              JOINT rIndex1
              {
                OFFSET -7.75947 0.938293 5.60832
                CHANNELS 3 Zrotation Xrotation Yrotation
                JOINT rIndex2
                {
                  OFFSET -2.54057 -0.884171 1.56538
                  CHANNELS 3 Zrotation Xrotation Yrotation
                  End Site
                  {
                    OFFSET -1.62519 -0.234802 1.16502
                  }
                }
              }
              JOINT rMid1
              {
                OFFSET -8.24714 1.18213 3.41376
                CHANNELS 3 Zrotation Xrotation Yrotation
                JOINT rMid2
                {
                  OFFSET -3.10165 -0.590103 1.0647
                  CHANNELS 3 Zrotation Xrotation Yrotation
                  End Site
                  {
                    OFFSET -2.48547 -0.328903 0.83742
                  }
                }
              }
              JOINT rRing1
              {
                OFFSET -8.82822 0.546677 1.51678
                CHANNELS 3 Zrotation Xrotation Yrotation
                JOINT rRing2
                {
                  OFFSET -2.60934 -0.819778 -0.0198488
                  CHANNELS 3 Zrotation Xrotation Yrotation
                  End Site
                  {
                    OFFSET -2.33842 -0.294052 0.168128
                  }
                }
              }
              JOINT rPinky1
              {
                OFFSET -8.27202 -0.0477905 -0.4584
                CHANNELS 3 Zrotation Xrotation Yrotation
                JOINT rPinky2
                {
                  OFFSET -1.82734 -0.647385 -0.700984
                  CHANNELS 3 Zrotation Xrotation Yrotation
                  End Site
                  {
                    OFFSET -1.69225 -0.51767 -0.607171
                  }
                }
              }
            }
          }
        }
      }
      JOINT lCollar
      {
        OFFSET 2.68224 19.2634 -4.8768
        CHANNELS 3 Zrotation Xrotation Yrotation
        JOINT lShldr
        {
          OFFSET 8.77824 -1.95073 1.46304
          CHANNELS 3 Zrotation Xrotation Yrotation
          JOINT lForeArm
          {
            OFFSET 28.1742 -1.7115 0.48768
            CHANNELS 3 Zrotation Xrotation Yrotation
            JOINT lHand
            {
              OFFSET 22.5879 0.773209 7.07136
              CHANNELS 3 Zrotation Xrotation Yrotation
              JOINT lThumb1
              {
                OFFSET 1.2192 -0.487915 3.41376
                CHANNELS 3 Zrotation Xrotation Yrotation
                JOINT lThumb2
                {
                  OFFSET 3.37035 -0.52449 3.41376
                  CHANNELS 3 Zrotation Xrotation Yrotation
                  End Site
                  {
                    OFFSET 1.78271 -1.18214 1.43049
                  }
                }
              }
              JOINT lIndex1
              {
                OFFSET 7.75947 0.938293 5.60832
                CHANNELS 3 Zrotation Xrotation Yrotation
                JOINT lIndex2
                {
                  OFFSET 2.54057 -0.884171 1.56538
                  CHANNELS 3 Zrotation Xrotation Yrotation
                  End Site
                  {
                    OFFSET 1.62519 -0.234802 1.16502
                  }
                }
              }
              JOINT lMid1
              {
                OFFSET 8.24714 1.18213 3.41376
                CHANNELS 3 Zrotation Xrotation Yrotation
                JOINT lMid2
                {
                  OFFSET 3.10165 -0.590103 1.0647
                  CHANNELS 3 Zrotation Xrotation Yrotation
                  End Site
                  {
                    OFFSET 2.48547 -0.328903 0.83742
                  }
                }
              }
              JOINT lRing1
              {
                OFFSET 8.82822 0.546677 1.51678
                CHANNELS 3 Zrotation Xrotation Yrotation
                JOINT lRing2
                {
                  OFFSET 2.60934 -0.819778 -0.0198488
                  CHANNELS 3 Zrotation Xrotation Yrotation
                  End Site
                  {
                    OFFSET 2.33842 -0.294052 0.168128
                  }
                }
              }
              JOINT lPinky1
              {
                OFFSET 8.27202 -0.0477905 -0.4584
                CHANNELS 3 Zrotation Xrotation Yrotation
                JOINT lPinky2
                {
                  OFFSET 1.82734 -0.647385 -0.700984
                  CHANNELS 3 Zrotation Xrotation Yrotation
                  End Site
                  {
                    OFFSET 1.69225 -0.51767 -0.607171
                  }
                }
              }
            }
          }
        }
      }
    }
  }
  JOINT rButtock
  {
    OFFSET -8.77824 4.35084 1.2192
    CHANNELS 3 Zrotation Xrotation Yrotation
    JOINT rThigh
    {
      OFFSET 0 -1.70687 -2.19456
      CHANNELS 3 Zrotation Xrotation Yrotation
      JOINT rShin
      {
        OFFSET 0 -36.8199 0.73152
        CHANNELS 3 Zrotation Xrotation Yrotation
        JOINT rFoot
        {
          OFFSET 0.73152 -45.1104 -5.12064
          CHANNELS 3 Zrotation Xrotation Yrotation
          End Site
          {
            OFFSET -1.1221 -3.69964 12.103
          }
        }
      }
    }
  }
  JOINT lButtock
  {
    OFFSET 8.77824 4.35084 1.2192
    CHANNELS 3 Zrotation Xrotation Yrotation
    JOINT lThigh
    {
      OFFSET 0 -1.70687 -2.19456
      CHANNELS 3 Zrotation Xrotation Yrotation
      JOINT lShin
      {
        OFFSET 0 -36.8199 0.73152
        CHANNELS 3 Zrotation Xrotation Yrotation
        JOINT lFoot
        {
          OFFSET -0.73152 -45.1104 -5.12064
          CHANNELS 3 Zrotation Xrotation Yrotation
          End Site
          {
            OFFSET 1.1221 -3.69964 12.103
          }
        }
      }
    }
  }
}
MOTION
Frames:	4
Frame Time:	0.00833333
50.1895 85.5269 142.172 -1.77868 0.00595662 0.0336573 2.34099 -0.00222385 0.0637208 0.646591 0.00595039 0.111937 4.88041e-014 0 6.70898e-016 1.456e-013 3.18055e-015 1.95989e-015 -0 0 0 -0 0 0 2.43497e-014 -1.5103e-016 4.47265e-016 5.13039e-013 -2.92586e-015 9.54166e-015 8.78936e-012 -2.74204e-012 6.99722e-014 1.00607e-010 2.05275e-012 1.45351e-012 2.3731e-010 -1.49898e-012 3.30778e-012 4.09817e-010 -2.58897e-012 5.69637e-012 2.37319e-010 -1.49526e-012 3.29187e-012 7.73091 5.47488 0.417314 2.3731e-010 -1.49864e-012 3.3046e-012 2.90554 0.965183 0.102902 2.37322e-010 -1.49814e-012 3.30539e-012 10.2786 0.731801 0.0259123 2.37309e-010 -1.50003e-012 3.31732e-012 2.22167 -0.733487 -0.20892 2.43541e-014 -1.52971e-016 2.48481e-016 5.07027e-013 -3.10601e-015 7.95139e-015 8.78429e-012 2.52655e-012 4.77083e-014 1.00578e-010 -3.21343e-012 1.49168e-012 2.37241e-010 -1.4903e-012 3.3046e-012 4.09714e-010 -2.57625e-012 5.70751e-012 2.37234e-010 -1.4889e-012 3.31732e-012 -7.73091 5.47488 -0.417314 2.37242e-010 -1.49069e-012 3.30142e-012 -2.90554 0.965183 -0.102902 2.37242e-010 -1.49059e-012 3.30937e-012 -10.2786 0.731801 -0.0259123 2.37245e-010 -1.48929e-012 3.30778e-012 -2.22167 -0.733487 0.20892 -2.03217e-016 0 -3.88251e-019 2.21586 -8.02969 -0.231385 0.00606934 8.9736 0.15205 -0.478077 -0.951421 0.0349055 2.03217e-016 0 3.88251e-019 1.35243 -1.92788 -0.0053641 0.00846387 -2.07867 0.0694362 0.423477 3.99898 -0.127233 
51.0415 84.7655 130.577 -1.67063 0.179908 -49.0107 2.63259 -0.0128589 0.923946 0.478562 -1.91887 0.399267 -1.30666 2.28869 -0.387257 1.91464 -2.74202 -0.687436 -0 0 0 -0 0 0 2.12071e-015 9.77896e-016 -1.48914e-014 22.0677 13.9911 -2.46569 -5.13746 -2.55172 7.77415 0.0762301 6.13095 0.843934 1.14479e-010 -9.31888e-011 8.87228e-011 1.98764e-010 -1.62971e-010 1.54464e-010 1.14485e-010 -9.3185e-011 8.87075e-011 7.73091 5.47488 0.417314 1.14479e-010 -9.31902e-011 8.87214e-011 2.90554 0.965183 0.102902 1.14491e-010 -9.31872e-011 8.87198e-011 10.2786 0.731801 0.0259123 1.14478e-010 -9.31889e-011 8.87304e-011 2.22167 -0.733487 -0.20892 2.04849e-015 9.75063e-016 -1.51639e-014 -22.441 11.6282 2.32039 5.39388 -2.74111 -8.08569 -0.0160602 2.81171 -0.393442 3.47244e-010 2.2212e-010 6.33641e-011 6.00626e-010 3.82784e-010 1.07659e-010 3.47238e-010 2.2212e-010 6.3371e-011 -7.73091 5.47488 -0.417314 3.47244e-010 2.2212e-010 6.33598e-011 -2.90554 0.965183 -0.102902 3.47242e-010 2.2212e-010 6.33656e-011 -10.2786 0.731801 -0.0259123 3.47247e-010 2.22122e-010 6.33626e-011 -2.22167 -0.733487 0.20892 -2.03217e-016 0 -3.88251e-019 4.55871 -7.54262 4.72758 0.0236844 12.0303 0.220594 -1.44913 -4.80481 -8.73688 2.03217e-016 0 3.88251e-019 -0.133992 -3.15894 -5.91911 -0.00864874 3.18228 -0.105449 1.05457 -1.3697 5.43987 
50.9837 84.7903 130.499 -1.43214 -0.105367 -100.85 2.94103 -0.0264519 1.83777 0.321203 -3.95153 0.70542 -2.65479 4.70783 -0.798638 3.86965 -5.64152 -1.41899 -0 0 0 -0 0 0 -2.14552e-014 2.17139e-015 -3.18087e-014 46.8688 28.6837 -5.61108 -9.8238 -5.09347 16.0431 -0.0439665 12.6083 1.76891 -2.43547e-011 -1.84088e-010 1.77558e-010 -3.99293e-011 -3.22303e-010 3.09388e-010 -2.43513e-011 -1.84084e-010 1.77544e-010 7.73091 5.47488 0.417314 -2.43545e-011 -1.84092e-010 1.77559e-010 2.90554 0.965183 0.102902 -2.43417e-011 -1.84086e-010 1.77554e-010 10.2786 0.731801 0.0259123 -2.43547e-011 -1.84088e-010 1.77564e-010 2.22167 -0.733487 -0.20892 -2.16141e-014 2.16746e-015 -3.21627e-014 -47.2729 23.8536 5.11208 10.2634 -5.45696 -16.6922 0.00914673 5.78437 -0.812631 4.75458e-010 4.72114e-010 1.29251e-010 8.23102e-010 8.13601e-010 2.19453e-010 4.75454e-010 4.72112e-010 1.29251e-010 -7.73091 5.47488 -0.417314 4.75459e-010 4.72112e-010 1.29245e-010 -2.90554 0.965183 -0.102902 4.75454e-010 4.72113e-010 1.29248e-010 -10.2786 0.731801 -0.0259123 4.7546e-010 4.72116e-010 1.29244e-010 -2.22167 -0.733487 0.20892 -2.03217e-016 0 -3.88251e-019 6.94288 -6.97643 9.9637 0.0340863 15.2619 0.295447 -3.74959 -8.55114 -18.1554 2.03217e-016 0 3.88251e-019 -1.98117 -4.39528 -12.1878 0.00846791 8.7429 -0.293452 2.85626 -6.91934 11.4109 
51.0584 84.7689 130.563 -1.63513 -0.680859 -147.096 3.21676 -0.0340977 2.6444 0.20069 -5.76782 0.978209 -3.82659 6.86482 -1.16923 5.54484 -8.2213 -2.08134 -0 0 0 -0 0 0 -4.23373e-014 3.23575e-015 -4.55687e-014 70.8348 41.6075 -9.61933 -13.3855 -7.09263 23.4896 -0.33771 18.3764 2.65268 -1.31183e-010 -2.76568e-010 2.59553e-010 -2.23342e-010 -4.83737e-010 4.51998e-010 -1.31183e-010 -2.76564e-010 2.59539e-010 7.73091 5.47488 0.417314 -1.31183e-010 -2.76573e-010 2.59555e-010 2.90554 0.965183 0.102902 -1.3117e-010 -2.76565e-010 2.59548e-010 10.2786 0.731801 0.0259123 -1.31183e-010 -2.76567e-010 2.59556e-010 2.22167 -0.733487 -0.20892 -4.25628e-014 3.23113e-015 -4.59888e-014 -70.6558 34.6301 8.29563 13.9209 -7.56964 -24.456 0.0687341 8.43352 -1.19179 5.6725e-010 6.69342e-010 1.83483e-010 9.8245e-010 1.1535e-009 3.11562e-010 5.67246e-010 6.69339e-010 1.83478e-010 -7.73091 5.47488 -0.417314 5.6725e-010 6.6934e-010 1.83477e-010 -2.90554 0.965183 -0.102902 5.67243e-010 6.69341e-010 1.83478e-010 -10.2786 0.731801 -0.0259123 5.6725e-010 6.69345e-010 1.83472e-010 -2.22167 -0.733487 0.20892 -2.03217e-016 0 -3.88251e-019 8.98667 -6.43163 14.612 0.0357486 18.1434 0.365019 -6.84801 -11.3601 -26.752 2.03217e-016 0 3.88251e-019 -3.85655 -5.40185 -17.8012 0.0554651 13.7038 -0.467961 5.44925 -11.615 16.9255 
